<?xml version="1.0" encoding="utf-8"?>
<!-- Generator: Adobe Illustrator 19.0.0, SVG Export Plug-In . SVG Version: 6.00 Build 0)  -->
<svg version="1.1" id="Layer_1" xmlns="http://www.w3.org/2000/svg" xmlns:xlink="http://www.w3.org/1999/xlink" x="0px" y="0px"
	 viewBox="-109 13.5 24 24" style="enable-background:new -109 13.5 24 24;" xml:space="preserve">
<style type="text/css">
	.st0{fill:#FFFFFF;}
	.st1{stroke:#FFFFFF;}
</style>
<path class="st0" d="M-91,20.5h-1v-1c0-1.1-0.9-2-2-2h-7c-1.1,0-2,0.9-2,2v1h-1c-0.6,0-1,0.4-1,1s0.4,1,1,1v8c0,2.2,1.8,4,4,4h5
	c2.2,0,4-1.8,4-4v-8c0.6,0,1-0.4,1-1S-90.4,20.5-91,20.5z M-101,19.5h7v1h-7V19.5z M-93,30.5c0,1.1-0.9,2-2,2h-5c-1.1,0-2-0.9-2-2
	v-8h1h7h1V30.5z"/>
<path class="st1" d="M-100.5,24c-0.3,0-0.5,0.2-0.5,0.5v6c0,0.3,0.2,0.5,0.5,0.5s0.5-0.2,0.5-0.5v-6C-100,24.3-100.2,24-100.5,24z"
	/>
<path class="st1" d="M-98.5,24c-0.3,0-0.5,0.2-0.5,0.5v6c0,0.3,0.2,0.5,0.5,0.5s0.5-0.2,0.5-0.5v-6C-98,24.3-98.2,24-98.5,24z"/>
<path class="st1" d="M-96.5,24c-0.3,0-0.5,0.2-0.5,0.5v6c0,0.3,0.2,0.5,0.5,0.5s0.5-0.2,0.5-0.5v-6C-96,24.3-96.2,24-96.5,24z"/>
<path class="st1" d="M-94.5,24c-0.3,0-0.5,0.2-0.5,0.5v6c0,0.3,0.2,0.5,0.5,0.5s0.5-0.2,0.5-0.5v-6C-94,24.3-94.2,24-94.5,24z"/>
</svg>
